#!OML:ASF C:\Vicon Data\Big\jianyuan-13\jianyuan\Session 1\Capture.male.ASF
:FULLY-SPECIFIED
:DEGREES
139
root -7.118300 17.564528 -14.427709 8.820957 6.815339 1.669165
lowerback -12.423315 1.946602 -2.856922 
upperback 1.884233 3.154553 -1.238702 
thorax 8.923229 1.412746 0.912606 
lowerneck -7.823997 -3.106765 2.278025 
upperneck 2.429303 -4.276741 -1.992107 
head 2.013747 -2.165014 -1.196265 
rclavicle 0.000000 0.000000 
rhumerus -30.630843 -3.688066 -91.585393 
rradius 41.066661 
rwrist 14.527707 
rhand -16.340553 -17.882302 
rfingers 0.000000 
rthumb 9.871620 -47.630824 
lclavicle 0.000000 0.000000 
lhumerus -51.411982 37.438185 57.574002 
lradius 23.752126 
lwrist -62.592611 
lhand -19.801425 -0.041762 
lfingers 0.000000 
lthumb 6.531485 29.837528 
rfemur 1.860361 3.569855 22.151913 
rtibia 26.454728 
rfoot -14.456041 -6.079395 
rtoes -33.295517 
lfemur -23.823759 -2.780040 -21.768656 
ltibia 17.594519 
lfoot -3.786447 7.797235 
ltoes -30.163152 
140
root -7.070722 17.571625 -14.313673 8.876481 6.862482 1.823021
lowerback -12.588378 1.850939 -3.073101 
upperback 1.842710 3.070253 -1.285031 
thorax 8.967902 1.361414 0.973704 
lowerneck -7.668367 -3.069382 2.331669 
upperneck 2.387735 -4.228711 -2.008135 
head 1.971718 -2.140616 -1.204005 
rclavicle 0.000000 0.000000 
rhumerus -31.066169 -4.300720 -91.270174 
rradius 40.391478 
rwrist 15.811149 
rhand -16.222497 -17.741008 
rfingers 0.000000 
rthumb 9.985483 -47.484129 
lclavicle 0.000000 0.000000 
lhumerus -51.315036 37.414357 57.666061 
lradius 23.718800 
lwrist -62.500336 
lhand -19.869622 0.028011 
lfingers 0.000000 
lthumb 6.465661 29.909285 
rfemur 1.469528 2.878003 21.785737 
rtibia 27.473789 
rfoot -13.377341 -5.995394 
rtoes -34.868011 
lfemur -23.501065 -2.583004 -22.129987 
ltibia 17.764435 
lfoot -4.006432 7.257653 
ltoes -31.028738 
141
root -7.025140 17.576798 -14.199786 9.010657 6.784511 1.975198
lowerback -12.834518 1.838552 -3.289986 
upperback 1.779163 3.104587 -1.372113 
thorax 9.033808 1.368028 1.017678 
lowerneck -7.618741 -3.093612 2.397590 
upperneck 2.398582 -4.270341 -1.914319 
head 1.965727 -2.157781 -1.185851 
rclavicle 0.000000 0.000000 
rhumerus -31.380741 -5.036408 -90.899590 
rradius 39.400645 
rwrist 16.941561 
rhand -16.281406 -17.468623 
rfingers 0.000000 
rthumb 9.928672 -47.214445 
lclavicle 0.000000 0.000000 
lhumerus -51.616615 38.286944 56.748518 
lradius 23.381703 
lwrist -63.683179 
lhand -20.051919 -0.091087 
lfingers 0.000000 
lthumb 6.289734 29.795519 
rfemur 0.934568 1.936866 21.324776 
rtibia 28.715702 
rfoot -12.372537 -5.601622 
rtoes -36.136944 
lfemur -23.245801 -2.297574 -22.491905 
ltibia 17.898786 
lfoot -4.248756 6.730794 
ltoes -31.826874 
142
root -6.976200 17.582860 -14.086358 9.019685 6.837148 2.099435
lowerback -12.977507 1.752774 -3.449956 
upperback 1.761810 3.026510 -1.422299 
thorax 9.095491 1.322164 1.043369 
lowerneck -7.473948 -3.071269 2.349494 
upperneck 2.322249 -4.236876 -1.833895 
head 1.917606 -2.139228 -1.145535 
rclavicle 0.000000 0.000000 
rhumerus -31.698729 -5.915372 -90.521202 
rradius 38.425667 
rwrist 18.397522 
rhand -16.357837 -17.556473 
rfingers 0.000000 
rthumb 9.854918 -47.305857 
lclavicle 0.000000 0.000000 
lhumerus -51.296214 37.943399 57.240060 
lradius 23.531827 
lwrist -63.229168 
lhand -19.899946 0.110625 
lfingers 0.000000 
lthumb 6.436399 29.992800 
rfemur 0.467224 1.266086 20.911533 
rtibia 30.192854 
rfoot -11.708878 -5.164799 
rtoes -34.266105 
lfemur -22.817048 -2.078264 -22.826864 
ltibia 17.946353 
lfoot -4.445289 6.187894 
ltoes -32.261513 
143
root -6.923061 17.584450 -13.975054 9.051029 6.981948 2.275672
lowerback -13.122360 1.644338 -3.622664 
upperback 1.736581 2.923149 -1.499492 
thorax 9.151842 1.264447 1.041771 
lowerneck -7.423584 -3.075851 2.520499 
upperneck 2.332538 -4.255530 -1.889942 
head 1.907252 -2.148148 -1.192365 
rclavicle 0.000000 0.000000 
rhumerus -32.117234 -6.943164 -90.059884 
rradius 37.488867 
rwrist 19.792349 
rhand -16.446025 -17.237674 
rfingers 0.000000 
rthumb 9.769822 -46.991058 
lclavicle 0.000000 0.000000 
lhumerus -51.220379 38.129462 57.141853 
lradius 23.426264 
lwrist -63.614336 
lhand -20.229136 0.107958 
lfingers 0.000000 
lthumb 6.118629 29.999626 
rfemur -0.144794 0.241191 20.434098 
rtibia 31.805870 
rfoot -10.773275 -4.853676 
rtoes -33.870639 
lfemur -22.412178 -2.152973 -23.176852 
ltibia 17.994093 
lfoot -4.697722 5.817521 
ltoes -32.416988 
144
root -6.877777 17.584681 -13.874049 9.132743 7.180929 2.365379
lowerback -13.175493 1.485685 -3.764535 
upperback 1.662225 2.735222 -1.508254 
thorax 9.103003 1.168581 1.074497 
lowerneck -7.322312 -3.032332 2.413824 
upperneck 2.308850 -4.187176 -1.850279 
head 1.885537 -2.113853 -1.155966 
rclavicle 0.000000 0.000000 
rhumerus -32.557435 -7.665983 -89.574823 
rradius 36.665577 
rwrist 20.929070 
rhand -16.436316 -17.323741 
rfingers 0.000000 
rthumb 9.779186 -47.076621 
lclavicle 0.000000 0.000000 
lhumerus -51.399552 38.799362 56.628165 
lradius 23.264444 
lwrist -64.237494 
lhand -20.114973 0.001139 
lfingers 0.000000 
lthumb 6.228849 29.889564 
rfemur -0.968178 -0.987956 20.085372 
rtibia 33.607371 
rfoot -9.795315 -4.612030 
rtoes -33.356015 
lfemur -22.168024 -1.973781 -23.443776 
ltibia 18.137465 
lfoot -4.825107 5.153484 
ltoes -32.246201 
145
root -6.831807 17.587734 -13.772067 9.269132 7.052988 2.461332
lowerback -13.298695 1.468282 -3.888019 
upperback 1.562181 2.740671 -1.575285 
thorax 9.062569 1.168516 1.075857 
lowerneck -7.219720 -3.040423 2.428535 
upperneck 2.273170 -4.199216 -1.803955 
head 1.855622 -2.118310 -1.140907 
rclavicle 0.000000 0.000000 
rhumerus -33.086354 -8.598750 -89.075715 
rradius 35.913377 
rwrist 21.628770 
rhand -16.478720 -17.071431 
rfingers 0.000000 
rthumb 9.738322 -46.826238 
lclavicle 0.000000 0.000000 
lhumerus -51.151674 38.781751 56.743615 
lradius 23.169440 
lwrist -64.604581 
lhand -20.404251 0.052826 
lfingers 0.000000 
lthumb 5.949567 29.949146 
rfemur -1.991964 -1.928035 19.640132 
rtibia 35.566834 
rfoot -8.684436 -4.266245 
rtoes -32.565426 
lfemur -21.977637 -1.699809 -23.729066 
ltibia 18.323995 
lfoot -5.199404 4.686012 
ltoes -32.092950 
146
root -6.782711 17.589792 -13.671742 9.294362 7.017920 2.525127
lowerback -13.319154 1.429675 -3.911285 
upperback 1.507290 2.697776 -1.641334 
thorax 9.018690 1.150082 1.009372 
lowerneck -7.198440 -3.042018 2.406544 
upperneck 2.274414 -4.201400 -1.741712 
head 1.853664 -2.117855 -1.116897 
rclavicle 0.000000 0.000000 
rhumerus -33.551618 -9.324753 -88.712079 
rradius 35.376709 
rwrist 21.190377 
rhand -16.547398 -17.381853 
rfingers 0.000000 
rthumb 9.672056 -47.139742 
lclavicle 0.000000 0.000000 
lhumerus -50.914908 38.938324 56.741481 
lradius 23.048416 
lwrist -65.143147 
lhand -20.160106 0.100772 
lfingers 0.000000 
lthumb 6.185246 29.990499 
rfemur -2.984446 -3.009204 19.203664 
rtibia 37.645010 
rfoot -7.606185 -4.038429 
rtoes -31.357759 
lfemur -21.648947 -1.522588 -23.977326 
ltibia 18.451231 
lfoot -5.514030 4.262903 
ltoes -32.124222 
147
root -6.752777 17.590239 -13.610046 9.389841 6.935974 2.564343
lowerback -13.375654 1.416848 -3.933222 
upperback 1.429406 2.687725 -1.682507 
thorax 8.967706 1.147130 0.976355 
lowerneck -7.139239 -3.025756 2.441071 
upperneck 2.258954 -4.179516 -1.793569 
head 1.836909 -2.107902 -1.136786 
rclavicle 0.000000 0.000000 
rhumerus -33.918421 -9.930240 -88.391273 
rradius 34.926214 
rwrist 21.464363 
rhand -16.692854 -17.405485 
rfingers 0.000000 
rthumb 9.531692 -47.169853 
lclavicle 0.000000 0.000000 
lhumerus -50.866609 39.248518 56.550116 
lradius 22.917640 
lwrist -65.518634 
lhand -20.172855 0.229973 
lfingers 0.000000 
lthumb 6.172918 30.120041 
rfemur -3.752258 -3.675245 18.934095 
rtibia 39.057344 
rfoot -7.073130 -3.904219 
rtoes -31.395028 
lfemur -21.520577 -1.464242 -24.116692 
ltibia 18.498603 
lfoot -5.773616 4.104328 
ltoes -32.177274 
